<svg width="652" height="889" viewBox="0 0 652 889" fill="none" xmlns="http://www.w3.org/2000/svg">
<path fill-rule="evenodd" clip-rule="evenodd" d="M470.516 604.504C416.826 692.711 436.739 835.735 342.657 878.331C249.278 920.608 153.905 819.981 55.1023 792.582C-40.884 765.964 -153.837 787.548 -227.299 720.275C-304.164 649.886 -335.825 539.255 -335.308 435.063C-334.81 334.908 -285.288 243.331 -224.535 163.719C-167.99 89.6199 -96.7907 17.3826 -4.83644 2.00168C81.189 -12.3876 150.145 71.3161 236.012 86.6844C333.564 104.144 444.311 40.639 525.846 96.9811C610.955 155.793 661.486 270.141 650.278 372.948C639.421 472.531 522.596 518.943 470.516 604.504Z" fill="#130F49" fill-opacity="0.3"/>
</svg>
