<svg width="725" height="987" viewBox="0 0 725 987" fill="none" xmlns="http://www.w3.org/2000/svg">
<path fill-rule="evenodd" clip-rule="evenodd" d="M529.151 -111.504C664.098 -152.065 774.335 -315.398 908.679 -272.824C1042.02 -230.567 1047.05 -41.4429 1122.34 76.4825C1195.49 191.047 1329.83 272.161 1343.03 407.447C1356.85 548.998 1288.08 690.167 1192.53 795.451C1100.67 896.656 966.884 944.44 832.608 969.836C707.63 993.474 569.476 1001.86 462.113 933.6C361.672 869.743 368.025 721.891 294.885 627.974C211.793 521.278 41.4632 484.728 10.0921 353.174C-22.6541 215.853 30.3507 53.7009 135.494 -40.4269C237.341 -131.603 398.251 -72.1589 529.151 -111.504Z" fill="#130F49" fill-opacity="0.3"/>
</svg>
