<svg width="32" height="32" viewBox="0 0 32 32" fill="none" xmlns="http://www.w3.org/2000/svg">
<path d="M31.5 15.7612C31.5 13.0112 30.75 10.3862 29.375 8.01123C28 5.63623 26.125 3.76123 23.75 2.38623C21.375 1.01123 18.75 0.26123 16 0.26123C13.1875 0.26123 10.625 1.01123 8.25 2.38623C5.875 3.76123 3.9375 5.63623 2.5625 8.01123C1.1875 10.3862 0.5 13.0112 0.5 15.7612C0.5 18.5737 1.1875 21.1362 2.5625 23.5112C3.9375 25.8862 5.875 27.8237 8.25 29.1987C10.625 30.5737 13.1875 31.2612 16 31.2612C18.75 31.2612 21.375 30.5737 23.75 29.1987C26.125 27.8237 28 25.8862 29.375 23.5112C30.75 21.1362 31.5 18.5737 31.5 15.7612ZM14.1875 23.9487C14 24.1987 13.75 24.2612 13.5 24.2612C13.1875 24.2612 12.9375 24.1987 12.8125 23.9487L6.3125 17.4487C6.0625 17.3237 6 17.0737 6 16.7612C6 16.5112 6.0625 16.2612 6.3125 16.0737L7.6875 14.6362C7.875 14.4487 8.125 14.3237 8.375 14.3237C8.625 14.3237 8.875 14.4487 9.125 14.6362L13.5 19.0112L22.875 9.63623C23.0625 9.44873 23.3125 9.32373 23.5625 9.32373C23.8125 9.32373 24.0625 9.44873 24.3125 9.63623L25.6875 11.0737C25.875 11.2612 26 11.5112 26 11.7612C26 12.0737 25.875 12.3237 25.6875 12.4487L14.1875 23.9487Z" fill="#130F49"/>
</svg>
